<svg width="20" height="20" viewBox="0 0 20 20" fill="none" xmlns="http://www.w3.org/2000/svg">
<path d="M14.5862 0H5.41382C2.42859 0 0 2.42859 0 5.41382V14.5863C0 17.5714 2.42859 20 5.41382 20H14.5863C17.5714 20 20 17.5714 20 14.5863V5.41382C20 2.42859 17.5714 0 14.5862 0ZM10 15.4686C6.98456 15.4686 4.5314 13.0154 4.5314 10C4.5314 6.98456 6.98456 4.5314 10 4.5314C13.0154 4.5314 15.4686 6.98456 15.4686 10C15.4686 13.0154 13.0154 15.4686 10 15.4686ZM15.5994 5.82108C14.7083 5.82108 13.9835 5.09628 13.9835 4.20517C13.9835 3.31406 14.7083 2.58911 15.5994 2.58911C16.4905 2.58911 17.2154 3.31406 17.2154 4.20517C17.2154 5.09628 16.4905 5.82108 15.5994 5.82108Z" fill="white"/>
<path d="M10 5.70389C7.63123 5.70389 5.70389 7.63107 5.70389 10C5.70389 12.3688 7.63123 14.2961 10 14.2961C12.3689 14.2961 14.2961 12.3688 14.2961 10C14.2961 7.63107 12.3689 5.70389 10 5.70389Z" fill="white"/>
<path d="M15.5994 3.76175C15.3549 3.76175 15.1559 3.96072 15.1559 4.20517C15.1559 4.44962 15.3549 4.64859 15.5994 4.64859C15.844 4.64859 16.0429 4.44977 16.0429 4.20517C16.0429 3.96057 15.844 3.76175 15.5994 3.76175Z" fill="white"/>
</svg>
