<svg width="24" height="20" viewBox="0 0 24 20" fill="none" xmlns="http://www.w3.org/2000/svg">
<path d="M0.423911 9.58995L5.95399 11.5654L8.09446 18.154C8.23142 18.576 8.77055 18.732 9.12838 18.452L12.2109 16.0468C12.5341 15.7947 12.9943 15.7822 13.332 16.0168L18.8919 19.8803C19.2747 20.1466 19.8169 19.9459 19.9129 19.5031L23.9859 0.751874C24.0907 0.268259 23.5941 -0.135187 23.1131 0.0429145L0.417431 8.42279C-0.142649 8.62953 -0.137769 9.38849 0.423911 9.58995ZM7.7495 10.5138L18.5573 4.14269C18.7516 4.02853 18.9515 4.27991 18.7847 4.42799L9.86502 12.3637C9.5515 12.643 9.34926 13.0168 9.29198 13.4226L8.98814 15.5777C8.9479 15.8654 8.52559 15.894 8.44263 15.6156L7.27407 11.6856C7.14023 11.2373 7.33526 10.7586 7.7495 10.5138Z" fill="white"/>
</svg>
